<svg width="27" height="26" viewBox="0 0 27 26" fill="none" xmlns="http://www.w3.org/2000/svg">
<path d="M13.9603 5.71296L14.5726 4.67839C14.9505 4.03178 15.7933 3.81378 16.4547 4.18327C17.1161 4.55276 17.3391 5.37673 16.9612 6.02334L11.0615 16.007H15.3285C16.7117 16.007 17.4865 17.5958 16.8856 18.6969H4.37571C3.61227 18.6969 3 18.0983 3 17.3519C3 16.6056 3.61227 16.007 4.37571 16.007H7.88301L12.373 8.39917L10.9708 6.01964C10.5929 5.37303 10.8158 4.55646 11.4772 4.17957C12.1386 3.81008 12.9739 4.02808 13.3594 4.67469L13.9603 5.71296ZM8.65401 20.0825L7.33121 22.3253C6.95327 22.9719 6.11046 23.1899 5.44906 22.8204C4.78767 22.4509 4.56468 21.627 4.94262 20.9804L5.92527 19.3176C7.03642 18.9814 7.9397 19.2401 8.65401 20.0825ZM20.0452 16.0144H23.6243C24.3877 16.0144 25 16.613 25 17.3593C25 18.1057 24.3877 18.7043 23.6243 18.7043H21.6363L22.978 20.9804C23.356 21.627 23.133 22.4435 22.4716 22.8204C21.8102 23.1899 20.9749 22.9719 20.5894 22.3253C18.3293 18.4937 16.6324 15.6264 15.5061 13.7162C14.3534 11.7726 15.1773 9.82171 15.9899 9.16032C16.8931 10.6752 18.2424 12.9624 20.0452 16.0144Z" fill="white"/>
</svg>
