<svg width="177" height="25" viewBox="0 0 177 25" fill="none" xmlns="http://www.w3.org/2000/svg">
<g clip-path="url(#clip0_6_16)">
<path d="M105.11 19.223H103.395L111.732 0.0112177H113.278L121.455 19.223H119.739L117.567 14.0417H107.285L105.11 19.223ZM107.851 12.632H117.001L112.463 1.64135L107.851 12.632ZM128.728 5.92286H125.116V0H123.632V5.92286H120.99V7.17105H123.655V15.9675C123.655 18.4398 125.198 19.223 126.749 19.223C127.507 19.223 128.16 19.0887 128.756 18.873L128.678 17.5976C128.213 17.815 127.644 17.9508 127.126 17.9508C125.931 17.9508 125.116 17.433 125.116 15.6175V7.17105H128.728V5.92286ZM131.456 19.223H132.948V12.4626C132.948 8.93706 134.933 7.14228 136.943 7.14228C139.551 7.14228 140.176 9.12562 140.176 11.4574V19.223H141.666V12.2997C141.666 9.50122 142.97 7.14228 145.602 7.14228C148.147 7.14228 149.047 9.23433 149.047 11.7291V19.223H150.511V11.1889C150.511 8.20191 149.074 5.92286 145.816 5.92286C143.725 5.92286 142.095 7.00966 141.284 8.93706H141.231C140.523 6.82106 139.086 5.92286 137.186 5.92286C135.398 5.92286 133.663 7.03683 132.919 8.76924H132.867C132.867 8.09164 132.811 6.62607 132.76 5.92286H131.35C131.428 6.76351 131.456 8.44641 131.456 9.15123V19.223ZM159.457 19.2453C155.548 19.2453 152.802 16.399 152.802 12.5698C152.802 8.71651 155.548 5.92286 159.457 5.92286C163.394 5.92286 166.135 8.71651 166.135 12.5698C166.135 16.399 163.394 19.2453 159.457 19.2453ZM159.457 7.19822C156.307 7.19822 154.325 9.55877 154.325 12.5698C154.325 15.5823 156.307 17.9172 159.457 17.9172C162.63 17.9172 164.615 15.5823 164.615 12.5698C164.615 9.55877 162.63 7.19822 159.457 7.19822ZM176.757 8.08042C175.942 6.69479 174.334 5.93725 172.49 5.93725C170.293 5.93725 168.177 7.02405 168.177 9.46444C168.177 14.1599 175.527 12.0695 175.527 15.5136C175.527 17.2812 173.984 17.9828 172.409 17.9828C170.86 17.9828 169.507 17.1709 168.773 16.0266L167.608 16.872C168.689 18.4718 170.512 19.231 172.409 19.231C174.715 19.231 177 18.0931 177 15.4081C177 13.3465 175.445 12.3684 172.762 11.7707C170.673 11.3103 169.59 10.8213 169.59 9.35417C169.59 7.78159 171.108 7.15827 172.438 7.15827C173.847 7.15827 174.99 7.8327 175.614 8.8939L176.757 8.08042ZM0 19.2054H2.83333C8.1229 19.2054 12.4312 14.8935 12.4312 9.60988C12.4312 4.32151 8.1229 0.00799875 2.83333 0.00799875H0V19.2054ZM27.3075 0.00799875H24.4773C19.1878 0.00799875 14.8763 4.32151 14.8763 9.60988C14.8763 14.8935 19.1878 19.2054 24.4773 19.2054H27.3075V0.00799875ZM40.0567 0.00799875H33.1228V19.2054H40.0567C45.3479 19.2054 49.6546 14.8983 49.6546 9.60827C49.6546 4.31673 45.3479 0.00799875 40.0567 0.00799875ZM40.0567 16.2967H36.0328V2.92149H40.0567C43.7402 2.92149 46.743 5.92447 46.743 9.60827C46.743 13.2889 43.7402 16.2967 40.0567 16.2967ZM57.7839 5.92286C54.1164 5.92286 51.1312 8.90512 51.1312 12.5729C51.1312 16.2423 54.1164 19.2198 57.7839 19.2198C61.4498 19.2198 64.435 16.2423 64.435 12.5729C64.435 8.90512 61.4498 5.92286 57.7839 5.92286ZM57.7839 16.5556C55.5578 16.5556 53.7728 14.7497 53.7728 12.5474C53.7728 10.3227 55.5818 8.5343 57.7839 8.5343C59.9828 8.5343 61.795 10.3483 61.795 12.5474C61.795 14.772 59.9828 16.5556 57.7839 16.5556ZM66.3175 19.223H69.2259V0.0112177H66.3175V19.223ZM78.3907 5.92447C76.9813 5.92447 75.6661 6.36718 74.589 7.12311V0.0112177H71.6725V19.223H74.589V18.0243C75.6661 18.7771 76.9813 19.2214 78.3907 19.2214C82.0583 19.2214 85.045 16.2423 85.045 12.5729C85.045 8.90512 82.0583 5.92447 78.3907 5.92447ZM78.3907 16.5572C76.6121 16.5572 75.1179 15.4017 74.589 13.8115C74.4563 13.4168 74.3812 12.9885 74.3812 12.549C74.3812 12.1063 74.4563 11.6812 74.589 11.2832C75.1211 9.68499 76.6297 8.53591 78.3907 8.53591C80.5944 8.53591 82.4034 10.3499 82.4034 12.549C82.4034 14.772 80.5944 16.5572 78.3907 16.5572ZM95.7056 5.92925L91.9198 14.4492L88.1261 5.92925H84.9428L90.325 18.018C90.325 18.018 89.0082 20.9794 89.005 20.9874C88.6582 21.7689 87.7393 22.1205 86.9547 21.7737L86.536 21.5867L85.3646 24.2253L85.3678 24.2269L86.3794 24.676C88.2715 25.5182 90.4992 24.6616 91.3477 22.7661C91.3573 22.7486 98.2401 7.37083 98.8825 5.92925H95.7056Z" fill="black"/>
</g>
<defs>
<clipPath id="clip0_6_16">
<rect width="177" height="25" fill="white"/>
</clipPath>
</defs>
</svg>
