<svg width="186" height="38" viewBox="0 0 186 38" fill="none" xmlns="http://www.w3.org/2000/svg">
<g clip-path="url(#clip0_24_449)">
<path d="M27.8256 5.16663C33.8096 5.16663 36.3902 14.9866 38.5492 21.46C39.6882 16.8066 39.0898 15.8066 40.3138 15.8066C40.766 15.8066 41.2284 16.11 41.2284 16.66C41.2284 16.6966 41.2182 16.7966 41.1978 16.9433L41.1094 17.5266C40.868 19.0733 40.273 22.3133 39.6236 24.48C44.8732 37.97 48.773 20.2033 49.2116 16.5733C49.2762 16.05 49.6808 15.8066 50.0854 15.8066C50.6294 15.8066 51.0748 16.2066 50.9898 16.81C50.048 22.6833 48.603 31.8333 42.6598 31.8333C39.3788 31.8333 37.536 29.3166 36.0774 26.4333C32.436 19.42 30.7598 7.64329 27.1898 7.64329C26.044 7.64329 25.1974 8.81329 25.1396 8.81329C25.0308 8.81329 24.9458 8.33663 23.8782 7.02996C24.8948 5.88996 26.2956 5.16663 27.8256 5.16663ZM8.3572 5.17996C17.7174 5.17996 18.5504 29.3933 23.8476 29.3933C24.4698 29.3933 25.1396 29.0233 25.874 28.1866C26.2786 28.86 26.6934 29.46 27.1252 29.9866C26.0678 31.17 24.752 31.8333 23.103 31.8333C17.1836 31.83 14.6404 22.1133 12.4542 15.5533C11.9374 17.6566 11.6688 19.5633 11.5668 20.4166C11.4988 20.96 11.0942 21.21 10.6862 21.21C10.2306 21.21 9.7716 20.9033 9.7716 20.36L9.7818 20.2333C10.0844 18.0766 10.6964 14.81 11.3798 12.5333C10.4686 10.1933 9.333 7.63663 7.6568 7.63663C4.2738 7.63663 2.3358 15.97 1.7918 20.4166C1.7272 20.96 1.3192 21.21 0.9112 21.21C0.459 21.21 0 20.9033 0 20.36C0 20.32 0.0034 20.2766 0.0068 20.2333C0.9622 13.4533 2.7472 5.17996 8.3572 5.17996ZM18.071 5.16663C19.7506 5.16663 21.5526 6.02663 23.1098 8.03663C23.1948 8.13663 24.0652 9.46329 24.3406 9.92329C28.1418 16.6733 29.9812 29.4233 33.5954 29.4233C34.221 29.4233 34.8976 29.0433 35.6456 28.1866C36.0536 28.86 36.4684 29.46 36.8968 29.9866C35.8428 31.1666 34.527 31.8333 32.878 31.8333C23.5722 31.83 22.5624 7.63329 17.4352 7.63329C16.2792 7.63329 15.4224 8.81329 15.3646 8.81329C15.2558 8.81329 15.1708 8.33663 14.1032 7.02996C15.147 5.85996 16.558 5.16663 18.071 5.16663Z" fill="black"/>
</g>
<path d="M65.0938 30V7.375H69.1562V26.5625H79.1562V30H65.0938ZM88.665 30.3438C83.7275 30.3438 80.54 26.8438 80.54 21.5938C80.54 16.3125 83.7275 12.8125 88.665 12.8125C93.6338 12.8125 96.79 16.3125 96.79 21.5938C96.79 26.8438 93.6338 30.3438 88.665 30.3438ZM88.6963 27.1562C91.415 27.1562 92.7588 24.6875 92.7588 21.5625C92.7588 18.4688 91.415 15.9688 88.6963 15.9688C85.915 15.9688 84.5713 18.4688 84.5713 21.5625C84.5713 24.6875 85.915 27.1562 88.6963 27.1562ZM108.549 17.875C108.299 16.5938 107.236 15.7812 105.549 15.7812C103.83 15.7812 102.58 16.625 102.611 17.7812C102.58 18.6562 103.299 19.3125 105.018 19.7188L107.893 20.3125C111.111 21.0312 112.643 22.5 112.674 24.9375C112.643 28.125 109.861 30.3438 105.424 30.3438C101.111 30.3438 98.5488 28.4062 98.1425 25.1562H102.205C102.455 26.5938 103.58 27.3125 105.424 27.3125C107.33 27.3125 108.611 26.5312 108.611 25.2812C108.611 24.3125 107.83 23.6875 106.143 23.3125L103.424 22.7188C100.268 22.0938 98.6425 20.4375 98.6425 18C98.6425 14.875 101.33 12.8125 105.486 12.8125C109.549 12.8125 112.049 14.7812 112.33 17.875H108.549ZM124.37 17.875C124.12 16.5938 123.057 15.7812 121.37 15.7812C119.651 15.7812 118.401 16.625 118.432 17.7812C118.401 18.6562 119.12 19.3125 120.839 19.7188L123.714 20.3125C126.932 21.0312 128.464 22.5 128.495 24.9375C128.464 28.125 125.682 30.3438 121.245 30.3438C116.932 30.3438 114.37 28.4062 113.964 25.1562H118.026C118.276 26.5938 119.401 27.3125 121.245 27.3125C123.151 27.3125 124.432 26.5312 124.432 25.2812C124.432 24.3125 123.651 23.6875 121.964 23.3125L119.245 22.7188C116.089 22.0938 114.464 20.4375 114.464 18C114.464 14.875 117.151 12.8125 121.307 12.8125C125.37 12.8125 127.87 14.7812 128.151 17.875H124.37ZM134.566 7.375V30H130.566V7.375H134.566ZM144.95 30.3438C139.825 30.3438 136.7 26.9375 136.7 21.625C136.7 16.375 139.887 12.8125 144.731 12.8125C148.887 12.8125 152.481 15.4062 152.481 21.375V22.625H140.637C140.684 25.5156 142.387 27.2188 144.981 27.2188C146.731 27.2188 147.919 26.4688 148.419 25.4688H152.325C151.606 28.4062 148.887 30.3438 144.95 30.3438ZM140.669 19.9062H148.669C148.637 17.5938 147.106 15.9062 144.794 15.9062C142.387 15.9062 140.794 17.7344 140.669 19.9062ZM164.24 17.875C163.99 16.5938 162.927 15.7812 161.24 15.7812C159.521 15.7812 158.271 16.625 158.302 17.7812C158.271 18.6562 158.99 19.3125 160.709 19.7188L163.584 20.3125C166.802 21.0312 168.334 22.5 168.365 24.9375C168.334 28.125 165.552 30.3438 161.115 30.3438C156.802 30.3438 154.24 28.4062 153.834 25.1562H157.896C158.146 26.5938 159.271 27.3125 161.115 27.3125C163.021 27.3125 164.302 26.5312 164.302 25.2812C164.302 24.3125 163.521 23.6875 161.834 23.3125L159.115 22.7188C155.959 22.0938 154.334 20.4375 154.334 18C154.334 14.875 157.021 12.8125 161.177 12.8125C165.24 12.8125 167.74 14.7812 168.021 17.875H164.24ZM180.061 17.875C179.811 16.5938 178.749 15.7812 177.061 15.7812C175.342 15.7812 174.092 16.625 174.124 17.7812C174.092 18.6562 174.811 19.3125 176.53 19.7188L179.405 20.3125C182.624 21.0312 184.155 22.5 184.186 24.9375C184.155 28.125 181.374 30.3438 176.936 30.3438C172.624 30.3438 170.061 28.4062 169.655 25.1562H173.717C173.967 26.5938 175.092 27.3125 176.936 27.3125C178.842 27.3125 180.124 26.5312 180.124 25.2812C180.124 24.3125 179.342 23.6875 177.655 23.3125L174.936 22.7188C171.78 22.0938 170.155 20.4375 170.155 18C170.155 14.875 172.842 12.8125 176.999 12.8125C181.061 12.8125 183.561 14.7812 183.842 17.875H180.061Z" fill="black"/>
<defs>
<clipPath id="clip0_24_449">
<rect width="51" height="30" fill="white" transform="translate(0 4)"/>
</clipPath>
</defs>
</svg>
