<svg width="52" height="52" viewBox="0 0 52 52" fill="none" xmlns="http://www.w3.org/2000/svg">
<mask id="mask0_63_116" style="mask-type:alpha" maskUnits="userSpaceOnUse" x="0" y="0" width="52" height="52">
<rect width="52" height="52" fill="#D9D9D9"/>
</mask>
<g mask="url(#mask0_63_116)">
<path d="M26 28.2832L15.0085 39.2752C14.7084 39.5749 14.3313 39.7284 13.877 39.7356C13.4231 39.7425 13.039 39.589 12.7249 39.2752C12.4111 38.961 12.2542 38.5804 12.2542 38.1334C12.2542 37.6863 12.4111 37.3057 12.7249 36.9915L23.7169 26L12.7249 15.0085C12.4251 14.7084 12.2717 14.3313 12.2644 13.877C12.2576 13.4231 12.4111 13.039 12.7249 12.7249C13.039 12.4111 13.4196 12.2542 13.8667 12.2542C14.3137 12.2542 14.6944 12.4111 15.0085 12.7249L26 23.7169L36.9915 12.7249C37.2916 12.4251 37.6688 12.2717 38.1231 12.2644C38.577 12.2576 38.961 12.4111 39.2752 12.7249C39.589 13.039 39.7459 13.4196 39.7459 13.8667C39.7459 14.3137 39.589 14.6944 39.2752 15.0085L28.2832 26L39.2752 36.9915C39.5749 37.2916 39.7284 37.6688 39.7356 38.1231C39.7425 38.577 39.589 38.961 39.2752 39.2752C38.961 39.589 38.5804 39.7459 38.1334 39.7459C37.6863 39.7459 37.3057 39.589 36.9915 39.2752L26 28.2832Z" fill="#1C1B1F"/>
</g>
</svg>
